<?xml version="1.0" encoding="UTF-8" standalone="no"?>
<svg
   width="128"
   height="128"
   version="1.1"
   id="svg6"
   sodipodi:docname="icon_working.svg"
   inkscape:version="1.4.3 (0d15f75, 2025-12-25)"
   xmlns:inkscape="http://www.inkscape.org/namespaces/inkscape"
   xmlns:sodipodi="http://sodipodi.sourceforge.net/DTD/sodipodi-0.dtd"
   xmlns="http://www.w3.org/2000/svg"
   xmlns:svg="http://www.w3.org/2000/svg">
  <defs
     id="defs6" />
  <sodipodi:namedview
     id="namedview6"
     pagecolor="#ffffff"
     bordercolor="#000000"
     borderopacity="0.25"
     inkscape:showpageshadow="2"
     inkscape:pageopacity="0.0"
     inkscape:pagecheckerboard="0"
     inkscape:deskcolor="#d1d1d1"
     inkscape:zoom="4.3632813"
     inkscape:cx="36.440465"
     inkscape:cy="76.891673"
     inkscape:window-width="2256"
     inkscape:window-height="1398"
     inkscape:window-x="-11"
     inkscape:window-y="-11"
     inkscape:window-maximized="1"
     inkscape:current-layer="layer2" />
  <rect
     width="124"
     height="124"
     x="2"
     y="2"
     fill="#363d52"
     stroke="#212532"
     stroke-width="4"
     rx="14"
     id="rect1"
     style="stroke:#7f6660;stroke-opacity:1;fill:#e6c9a3;fill-opacity:1" />
  <g
     fill="#414042"
     transform="matrix(0.101,0,0,0.101,12.322,12.322)"
     id="g6"
     style="display:none">
    <circle
       cx="307"
       cy="532"
       r="60"
       id="circle5" />
    <circle
       cx="717"
       cy="532"
       r="60"
       id="circle6" />
  </g>
  <rect
     width="124"
     height="124"
     x="2"
     y="2"
     fill="#363d52"
     stroke="#212532"
     stroke-width="4"
     rx="14"
     id="rect6"
     style="display:none;fill:#e2c798;fill-opacity:1;stroke:#7f6660;stroke-opacity:1" />
  <g
     inkscape:groupmode="layer"
     id="layer1"
     inkscape:label="Page"
     style="display:none">
    <path
       style="display:none;fill:#e6c9a3;fill-opacity:1;stroke:#7f6660;stroke-width:7.55906;stroke-linecap:round;stroke-opacity:1;paint-order:fill markers stroke"
       d="m 30.791114,26.253476 0.324117,75.843374 70.481689,-0.3012 -0.25532,-59.744477 -19.66412,0.08404 -0.07685,-17.982624 -50.817568,0.217169 z"
       id="path6" />
    <path
       style="fill:#e6c9a3;fill-opacity:1;stroke:#7f6660;stroke-width:7.559;stroke-linecap:round;stroke-linejoin:round;stroke-dasharray:none;stroke-opacity:1;paint-order:fill markers stroke"
       d="M 80,24 H 28 v 80 h 72 V 44 Z"
       id="path7"
       sodipodi:nodetypes="cccccc" />
    <path
       style="fill:#e6cca9;fill-opacity:1;stroke:none;stroke-width:0.687556;stroke-linecap:round;stroke-linejoin:miter;stroke-dasharray:none;stroke-opacity:1;paint-order:fill markers stroke"
       d="m 79.011638,36.698599 v -8.221722 l 8.193375,8.192774 c 4.506357,4.506026 8.193376,8.205801 8.193376,8.221723 0,0.01592 -3.687019,0.02895 -8.193376,0.02895 h -8.193375 z"
       id="path8" />
    <path
       style="display:inline;fill:none;fill-opacity:1;stroke:#7f6660;stroke-width:6;stroke-linecap:round;stroke-linejoin:miter;stroke-dasharray:none;stroke-opacity:1;paint-order:fill markers stroke"
       d="M 100,48 H 76 V 24"
       id="path6-2"
       sodipodi:nodetypes="ccc" />
  </g>
  <rect
     style="display:none;fill:#000000"
     id="rect2"
     width="96"
     height="96"
     x="16"
     y="16" />
  <g
     inkscape:groupmode="layer"
     id="layer2"
     inkscape:label="Page Smaller">
    <g
       id="g9"
       transform="matrix(0.7540441,0,0,0.75397027,15.736678,15.754344)">
      <path
         style="fill:#e6c9a3;fill-opacity:1;stroke:#7f6660;stroke-width:7.559;stroke-linecap:round;stroke-linejoin:round;stroke-dasharray:none;stroke-opacity:1;paint-order:fill markers stroke"
         d="M 80,24 H 28 v 80 h 72 V 44 Z"
         id="path4"
         sodipodi:nodetypes="cccccc" />
      <path
         style="fill:#e6cca9;fill-opacity:1;stroke:none;stroke-width:0.687556;stroke-linecap:round;stroke-linejoin:miter;stroke-dasharray:none;stroke-opacity:1;paint-order:fill markers stroke"
         d="m 79.011638,36.698599 v -8.221722 l 8.193375,8.192774 c 4.506357,4.506026 8.193376,8.205801 8.193376,8.221723 0,0.01592 -3.687019,0.02895 -8.193376,0.02895 h -8.193375 z"
         id="path5" />
      <path
         style="display:inline;fill:none;fill-opacity:1;stroke:#7f6660;stroke-width:6;stroke-linecap:round;stroke-linejoin:miter;stroke-dasharray:none;stroke-opacity:1;paint-order:fill markers stroke"
         d="M 100,48 H 76 V 24"
         id="path9"
         sodipodi:nodetypes="ccc" />
    </g>
  </g>
  <g
     fill="#ffffff"
     transform="matrix(0.101,0,0,0.101,12.322,12.322)"
     id="g4"
     style="display:none">
    <path
       d="m 105,673 v 33 q 407,354 814,0 v -33 z"
       id="path1" />
    <path
       fill="#478cbf"
       d="m 105,673 152,14 q 12,1 15,14 l 4,67 132,10 8,-61 q 2,-11 15,-15 h 162 q 13,4 15,15 l 8,61 132,-10 4,-67 q 3,-13 15,-14 L 919,673 V 427 q 30,-39 56,-81 -35,-59 -83,-108 -43,20 -82,47 -40,-37 -88,-64 7,-51 8,-102 -59,-28 -123,-42 -26,43 -46,89 -49,-7 -98,0 -20,-46 -46,-89 -64,14 -123,42 1,51 8,102 -48,27 -88,64 -39,-27 -82,-47 -48,49 -83,108 26,42 56,81 z m 0,33 v 39 c 0,276 813,276 814,0 v -39 l -134,12 -5,69 q -2,10 -14,13 l -162,11 q -12,0 -16,-11 L 578,735 H 446 l -10,65 q -4,11 -16,11 L 258,800 q -12,-3 -14,-13 l -5,-69 z"
       id="path2" />
    <path
       d="m 483,600 c 0,34 58,34 58,0 v -86 c 0,-34 -58,-34 -58,0 z"
       id="path3" />
    <circle
       cx="725"
       cy="526"
       r="90"
       id="circle3" />
    <circle
       cx="299"
       cy="526"
       r="90"
       id="circle4" />
  </g>
</svg>
