<?xml version="1.0" encoding="UTF-8" standalone="no"?>
<!-- Created with Inkscape (http://www.inkscape.org/) -->

<svg
   width="75mm"
   height="95mm"
   viewBox="0 0 75 95"
   version="1.1"
   id="svg1"
   xml:space="preserve"
   inkscape:version="1.4.3 (0d15f75, 2025-12-25)"
   sodipodi:docname="CapitalP.svg"
   xmlns:inkscape="http://www.inkscape.org/namespaces/inkscape"
   xmlns:sodipodi="http://sodipodi.sourceforge.net/DTD/sodipodi-0.dtd"
   xmlns="http://www.w3.org/2000/svg"
   xmlns:svg="http://www.w3.org/2000/svg"><sodipodi:namedview
     id="namedview1"
     pagecolor="#ffffff"
     bordercolor="#000000"
     borderopacity="0.25"
     inkscape:showpageshadow="2"
     inkscape:pageopacity="0.0"
     inkscape:pagecheckerboard="0"
     inkscape:deskcolor="#d1d1d1"
     inkscape:document-units="mm"
     inkscape:zoom="1.4072596"
     inkscape:cx="298.45241"
     inkscape:cy="353.52398"
     inkscape:window-width="2256"
     inkscape:window-height="1398"
     inkscape:window-x="-11"
     inkscape:window-y="-11"
     inkscape:window-maximized="1"
     inkscape:current-layer="layer1" /><defs
     id="defs1" /><g
     inkscape:label="Layer 1"
     inkscape:groupmode="layer"
     id="layer1"><path
       id="path1"
       style="fill:#7f0000;fill-opacity:1;stroke:#7f0000;stroke-width:2.11667;stroke-dasharray:none;stroke-opacity:1"
       d="m 2.3500292,1.8803381 0.235127,5.170227 c 0,0 5.868855,4.2892639 8.4847538,5.1805619 8.276292,2.819925 17.387978,1.140219 26.062491,1.944067 5.70075,0.528276 10.6354,0.151152 17.07131,1.891358 2.67907,0.724396 7.00078,2.427256 8.98291,4.369756 1.05092,1.0299 2.93627,3.53932 3.36982,4.94544 0.68877,2.23383 1.735975,5.72661 1.39527,8.61601 -0.57889,4.909368 -2.130809,10.277547 -5.71076,13.6865 -2.883058,2.745348 -7.304402,3.416022 -11.23394,4.05453 -6.322526,1.027344 -12.832639,0.126435 -19.210718,-0.46508 -3.308022,-0.306792 -6.660559,-0.62593 -9.838159,-1.59525 -2.939704,-0.89675 -5.305246,-3.70924 -8.375199,-3.85558 -1.945894,-0.09276 -4.1235078,0.56668 -5.5174928,1.92753 -1.304554,1.27354 -1.927531,5.11855 -1.927531,5.11855 0,0 4.6387548,-3.8258 7.3783608,-3.65611 2.888975,0.17894 4.676115,3.45353 7.245553,4.78627 3.506459,1.81875 7.196546,3.386095 11.034468,4.32067 6.190937,1.507559 12.702926,2.891761 19.011238,1.99419 4.880144,-0.694366 9.873167,-2.468343 13.69323,-5.58364 2.747935,-2.240967 4.597966,-5.548976 5.91591,-8.8408 1.361219,-3.399912 1.675596,-7.168281 1.879592,-10.824878 0.174866,-3.134449 0.02224,-6.940796 -0.569072,-9.400762 -0.65839,-2.73904 -1.27815,-5.69655 -2.66909,-8.14627 -1.09426,-1.927212 -2.90003,-3.672807 -4.6638,-5.014683 -3.06785,-2.334015 -6.09871,-2.501979 -9.86865,-3.3062579 -5.48595,-1.170373 -11.99644,-1.012482 -17.59737,-1.32085 -8.541721,-0.470278 -17.170513,0.33866 -25.412404,-1.953369 -3.2359548,-0.899903 -9.1658478,-4.04213 -9.1658478,-4.04213 z"
       sodipodi:nodetypes="ccsssssaaaassscssaaaaassssssc" /><rect
       style="fill:#7f0000;stroke-width:2.11666667;stroke-dasharray:none;fill-opacity:1;stroke:#7f0000;stroke-opacity:1"
       id="rect2"
       width="3.7602634"
       height="76.051331"
       x="14.759031"
       y="10.998773" /><rect
       style="fill:#7f0000;stroke-width:2.11666667;stroke-dasharray:none;fill-opacity:1;stroke:#7f0000;stroke-opacity:1"
       id="rect3"
       width="3.7602634"
       height="76.051331"
       x="21.997541"
       y="10.994142" /><path
       style="fill:#7f0000;fill-opacity:1;stroke:#7f0000;stroke-width:2.11667;stroke-dasharray:none;stroke-opacity:1"
       d="m 5.8284072,93.160528 c 0,0 1.442349,-3.66195 2.820198,-4.98235 1.143362,-1.09569 2.6876418,-1.80434 4.2302968,-2.16215 3.663529,-0.84974 7.556655,0.71178 11.280788,0.18801 1.914085,-0.2692 3.778535,-0.91053 5.546389,-1.69212 1.233691,-0.54543 3.478245,-2.06814 3.478245,-2.06814 l -1.825064,4.32234 c 0,0 -4.534021,2.36477 -7.011557,2.82216 -3.513428,0.64863 -7.267145,-1.11814 -10.716749,-0.18802 -1.343882,0.36235 -3.572251,2.16215 -3.572251,2.16215 z"
       id="path3"
       sodipodi:nodetypes="caaaaccaacc" /></g></svg>
